<svg width="64" height="54" viewBox="0 0 64 54" fill="none" xmlns="http://www.w3.org/2000/svg">
<path d="M32.08 54C31.3333 54 30.6005 53.8703 29.8816 53.611C29.1627 53.3516 28.5088 52.9625 27.92 52.4438C22.1067 47.464 17.3867 43.2747 13.76 39.876C10.1333 36.4772 7.29387 33.4956 5.2416 30.931C3.18933 28.3663 1.80267 26.0186 1.0816 23.8876C0.360534 21.7567 0 19.5002 0 17.1182C0 12.3458 1.70667 8.29971 5.12 4.97983C8.53333 1.65994 12.6933 0 17.6 0C21.12 0 24.2133 0.660865 26.88 1.98259C29.5467 3.30432 30.5067 5.21118 29.76 7.70317L26.8 17.8184C26.5333 18.8559 26.7072 19.7772 27.3216 20.5822C27.936 21.3873 28.7755 21.7888 29.84 21.7867H35.2L33.12 41.5504C33.0667 41.9654 33.2405 42.1988 33.6416 42.2507C34.0427 42.3026 34.2955 42.147 34.4 41.7839L40.32 22.7205C40.64 21.683 40.48 20.7493 39.84 19.9193C39.2 19.0893 38.3467 18.6744 37.28 18.6744H32L36.88 4.59078C37.4667 2.77522 38.6933 1.5562 40.56 0.933717C42.4267 0.311239 44.3733 0 46.4 0C51.3067 0 55.4667 1.65994 58.88 4.97983C62.2933 8.29971 64 12.3458 64 17.1182C64 19.4006 63.5733 21.6571 62.72 23.8876C61.8667 26.1182 60.3861 28.5821 58.2784 31.2795C56.1707 33.9769 53.344 37.025 49.7984 40.4237C46.2528 43.8225 41.76 47.8292 36.32 52.4438C35.7333 52.9625 35.0667 53.3516 34.32 53.611C33.5733 53.8703 32.8267 54 32.08 54Z" fill="#1A1A1A"/>
</svg>
