<svg width="24" height="25" viewBox="0 0 24 25" fill="none" xmlns="http://www.w3.org/2000/svg">
<path d="M23.9227 7.09551C23.908 6.08663 23.7215 5.08574 23.3643 4.14216C22.7392 2.53088 21.4665 1.25678 19.8552 0.633052C18.9236 0.282541 17.9387 0.0946247 16.9418 0.0733009C15.6597 0.015993 15.2532 0 11.9987 0C8.74411 0 8.32697 8.93673e-08 7.0542 0.0733009C6.05864 0.0946247 5.07375 0.282541 4.14216 0.633052C2.53088 1.25678 1.25677 2.53088 0.633052 4.14216C0.282541 5.07375 0.0932919 6.05864 0.0746335 7.0542C0.0173256 8.33763 0 8.74412 0 11.9987C0 15.2532 -9.92969e-09 15.669 0.0746335 16.9431C0.0946246 17.94 0.282541 18.9236 0.633052 19.8578C1.25811 21.4678 2.53088 22.7419 4.14349 23.3656C5.07108 23.7281 6.05598 23.9334 7.05553 23.9653C8.33896 24.0227 8.74545 24.04 12 24.04C15.2546 24.04 15.6717 24.04 16.9445 23.9653C17.94 23.9454 18.9249 23.7574 19.8578 23.4069C21.4691 22.7819 22.7419 21.5078 23.3669 19.8978C23.7175 18.9649 23.9054 17.9813 23.9254 16.9831C23.9827 15.701 24 15.2945 24 12.0387C23.9973 8.7841 23.9973 8.37095 23.9227 7.09551ZM11.9907 18.1533C8.58685 18.1533 5.82941 15.3958 5.82941 11.992C5.82941 8.58818 8.58685 5.83074 11.9907 5.83074C15.3918 5.83074 18.1519 8.58818 18.1519 11.992C18.1519 15.3958 15.3918 18.1533 11.9907 18.1533ZM18.3972 7.03954C17.6015 7.03954 16.9605 6.39716 16.9605 5.60284C16.9605 4.80853 17.6015 4.16615 18.3972 4.16615C19.1901 4.16615 19.8325 4.80853 19.8325 5.60284C19.8325 6.39716 19.1901 7.03954 18.3972 7.03954Z" fill="#999999"/>
<path d="M11.9907 15.9947C14.2011 15.9947 15.993 14.2028 15.993 11.9925C15.993 9.78209 14.2011 7.99023 11.9907 7.99023C9.78038 7.99023 7.98853 9.78209 7.98853 11.9925C7.98853 14.2028 9.78038 15.9947 11.9907 15.9947Z" fill="#999999"/>
</svg>
