<svg width="34" height="32" viewBox="0 0 34 32" fill="none" xmlns="http://www.w3.org/2000/svg">
<path d="M17 31.3829C16.4751 31.3823 15.9625 31.2237 15.5289 30.9277C9.10605 26.5676 6.3249 23.5781 4.79089 21.709C1.52184 17.7248 -0.0432248 13.6344 0.000907504 9.20485C0.0523951 4.12882 4.12482 0 9.07908 0C12.6816 0 15.1767 2.02927 16.6298 3.71937C16.6758 3.77237 16.7327 3.81487 16.7966 3.84399C16.8604 3.87312 16.9298 3.88819 17 3.88819C17.0702 3.88819 17.1396 3.87312 17.2034 3.84399C17.2673 3.81487 17.3242 3.77237 17.3702 3.71937C18.8233 2.02763 21.3184 0 24.9209 0C29.8752 0 33.9476 4.12882 33.9991 9.20566C34.0432 13.6361 32.4765 17.7265 29.2091 21.7098C27.6751 23.5789 24.894 26.5684 18.4711 30.9285C18.0374 31.2242 17.5248 31.3825 17 31.3829Z" fill="white"/>
</svg>
