<svg width="80" height="74" viewBox="0 0 80 74" fill="none" xmlns="http://www.w3.org/2000/svg">
<path d="M40 74C38.7649 73.9984 37.5588 73.6244 36.5387 72.9266C21.426 62.6456 14.8821 55.5964 11.2727 51.1891C3.58079 41.7946 -0.101705 32.1495 0.0021353 21.7047C0.123283 9.73563 9.70546 0 21.3625 0C29.839 0 35.7098 4.78495 39.1289 8.77016C39.2372 8.89513 39.371 8.99534 39.5213 9.06401C39.6716 9.13269 39.8348 9.16822 40 9.16822C40.1652 9.16822 40.3284 9.13269 40.4787 9.06401C40.629 8.99534 40.7628 8.89513 40.8711 8.77016C44.2902 4.78109 50.161 0 58.6375 0C70.2945 0 79.8767 9.73562 79.9979 21.7067C80.1017 32.1534 76.4154 41.7984 68.7273 51.191C65.1179 55.5983 58.574 62.6476 43.4614 72.9285C42.441 73.6257 41.2349 73.999 40 74Z" fill="black"/>
</svg>
