<svg width="80" height="71" viewBox="0 0 80 71" fill="none" xmlns="http://www.w3.org/2000/svg">
<path d="M40 71C39.6126 71 39.2317 70.9006 38.8937 70.7111C32.0128 66.6775 25.5549 61.9613 19.6175 56.6337C6.60011 44.9089 0 33.2242 0 21.9043C0.0013406 17.219 1.50333 12.6575 4.28551 8.88938C7.06769 5.12124 10.9835 2.34487 15.4583 0.967779C19.933 -0.40931 24.731 -0.314593 29.1481 1.23803C33.5651 2.79065 37.3685 5.7194 40 9.59441C42.6315 5.7194 46.4349 2.79065 50.8519 1.23803C55.269 -0.314593 60.067 -0.40931 64.5417 0.967779C69.0165 2.34487 72.9323 5.12124 75.7145 8.88938C78.4967 12.6575 79.9987 17.219 80 21.9043C80 33.2242 73.3999 44.9089 60.3825 56.6337C54.4451 61.9613 47.9872 66.6775 41.1063 70.7111C40.7683 70.9006 40.3874 71 40 71ZM21.8868 4.53192C17.2846 4.53714 12.8725 6.36911 9.61825 9.62592C6.36403 12.8827 4.53352 17.2984 4.5283 21.9043C4.5283 43.5538 33.8816 62.4108 40 66.1045C46.1184 62.4108 75.4717 43.5538 75.4717 21.9043C75.4709 17.8889 74.0806 13.9978 71.5372 10.8924C68.9937 7.78704 65.4541 5.65911 61.5202 4.8704C57.5862 4.0817 53.5007 4.68092 49.9583 6.56617C46.4159 8.45143 43.6353 11.5063 42.0891 15.2115C41.9169 15.624 41.6267 15.9762 41.255 16.2239C40.8832 16.4717 40.4466 16.6039 40 16.6039C39.5534 16.6039 39.1168 16.4717 38.745 16.2239C38.3733 15.9762 38.0831 15.624 37.9109 15.2115C36.5949 12.0449 34.37 9.33996 31.5176 7.43896C28.6653 5.53797 25.3137 4.5263 21.8868 4.53192Z" fill="black"/>
</svg>
