<svg width="34" height="30" viewBox="0 0 34 30" fill="none" xmlns="http://www.w3.org/2000/svg">
<path d="M17 30C16.8354 30 16.6735 29.958 16.5298 29.8779C13.6054 28.1736 10.8608 26.1808 8.33743 23.9297C2.80504 18.9756 0 14.0384 0 9.25532C0.000569756 7.27563 0.638914 5.34825 1.82134 3.75608C3.00377 2.1639 4.668 0.990789 6.56977 0.408921C8.47154 -0.172948 10.5107 -0.132927 12.3879 0.52311C14.2652 1.17915 15.8816 2.41665 17 4.05398C18.1184 2.41665 19.7348 1.17915 21.6121 0.52311C23.4893 -0.132927 25.5285 -0.172948 27.4302 0.408921C29.332 0.990789 30.9962 2.1639 32.1787 3.75608C33.3611 5.34825 33.9994 7.27563 34 9.25532C34 14.0384 31.195 18.9756 25.6626 23.9297C23.1392 26.1808 20.3946 28.1736 17.4702 29.8779C17.3265 29.958 17.1646 30 17 30ZM9.30189 1.91489C7.34597 1.9171 5.4708 2.69117 4.08776 4.06729C2.70471 5.44341 1.92674 7.30919 1.92453 9.25532C1.92453 18.403 14.3997 26.3708 17 27.9315C19.6003 26.3708 32.0755 18.403 32.0755 9.25532C32.0751 7.5587 31.4843 5.91456 30.4033 4.60243C29.3223 3.2903 27.818 2.39117 26.1461 2.05792C24.4741 1.72466 22.7378 1.97785 21.2323 2.77444C19.7268 3.57102 18.545 4.86184 17.8879 6.42741C17.8147 6.60167 17.6913 6.7505 17.5334 6.85518C17.3754 6.95986 17.1898 7.01572 17 7.01572C16.8102 7.01572 16.6246 6.95986 16.4666 6.85518C16.3087 6.7505 16.1853 6.60167 16.1121 6.42741C15.5528 5.08938 14.6072 3.94646 13.395 3.14322C12.1828 2.33999 10.7583 1.91252 9.30189 1.91489Z" fill="white"/>
</svg>
