<svg width="36" height="36" viewBox="0 0 36 36" fill="none" xmlns="http://www.w3.org/2000/svg">
<circle cx="18" cy="18" r="18" fill="white"/>
<circle cx="18" cy="17.9992" r="16.8" fill="black"/>
<circle cx="18" cy="18.0004" r="15.6" fill="white"/>
<path d="M19.699 25H14.835V24.468H15.443C16.0003 24.468 16.279 24.2907 16.279 23.936C16.279 23.8853 16.2157 23.67 16.089 23.29L14.797 19.908H10.009L8.755 23.138C8.755 23.1633 8.71067 23.3217 8.622 23.613C8.53333 23.8917 8.489 24.088 8.489 24.202C8.489 24.3033 8.55867 24.373 8.698 24.411C8.83733 24.449 9.135 24.468 9.591 24.468H9.895V25H6.171V24.468H6.437C6.855 24.468 7.159 24.3983 7.349 24.259C7.539 24.107 7.70367 23.86 7.843 23.518L12.023 12.612C12.0863 12.5993 12.2003 12.5107 12.365 12.346C12.5297 12.1687 12.6817 11.9913 12.821 11.814C12.9603 11.624 13.03 11.5163 13.03 11.491C13.03 11.4657 13.0237 11.4467 13.011 11.434L13.277 11.358L17.951 23.594C18.0903 23.8853 18.2297 24.107 18.369 24.259C18.521 24.3983 18.7363 24.468 19.015 24.468H19.699V25ZM14.455 19.11L12.403 13.676L10.313 19.11H14.455ZM29.7455 25H27.0095V22.758C26.7182 23.556 26.2685 24.1767 25.6605 24.62C25.0525 25.0507 24.3115 25.266 23.4375 25.266C22.9815 25.266 22.5952 25.1647 22.2785 24.962C21.9619 24.7593 21.7339 24.4997 21.5945 24.183C21.3539 23.6383 21.2335 23.1 21.2335 22.568V18.046C21.2335 17.4633 20.8662 17.172 20.1315 17.172V16.64C20.3849 16.64 20.7649 16.5703 21.2715 16.431C21.7909 16.2917 22.1709 16.146 22.4115 15.994L22.7535 15.956V22.226C22.7535 22.796 22.8865 23.233 23.1525 23.537C23.4312 23.8283 23.8175 23.974 24.3115 23.974C25.0209 23.974 25.6479 23.594 26.1925 22.834C26.7372 22.074 27.0095 21.504 27.0095 21.124V18.046C27.0095 17.4633 26.6422 17.172 25.9075 17.172V16.64C26.1862 16.64 26.5789 16.5703 27.0855 16.431C27.6049 16.2917 27.9849 16.146 28.2255 15.994L28.5675 15.956V23.708C28.5675 23.8853 28.5802 24.0183 28.6055 24.107C28.6689 24.3477 28.9349 24.468 29.4035 24.468H29.7455V25Z" fill="black"/>
</svg>
