<svg width="48" height="48" viewBox="0 0 48 48" fill="none" xmlns="http://www.w3.org/2000/svg">
<path d="M47.3518 27.4627L45.1017 25.4422C44.6886 25.0713 44.4535 24.5482 44.4535 24C44.4535 23.4519 44.6886 22.9289 45.1017 22.5579L47.3518 20.5374C47.8817 20.0616 48.1098 19.345 47.9497 18.6595C47.7896 17.9739 47.2656 17.4249 46.577 17.2209L43.6524 16.3543C43.1156 16.1952 42.6715 15.8236 42.4281 15.3298C42.1846 14.8359 42.1642 14.265 42.3717 13.7557L43.5016 10.9816C43.7677 10.3283 43.6549 9.58581 43.2063 9.03624C42.7577 8.48658 42.0418 8.21395 41.3307 8.32205L38.3109 8.78096C37.7566 8.86524 37.1915 8.71861 36.7528 8.37689C36.3142 8.03517 36.0422 7.52939 36.0029 6.98273L35.7888 4.00427C35.7385 3.30293 35.3072 2.68173 34.6588 2.37676C34.0104 2.0717 33.2445 2.12954 32.6517 2.52836L30.1348 4.22196C29.6728 4.53293 29.0984 4.64037 28.5516 4.5185C28.0047 4.39653 27.535 4.05631 27.2567 3.58024L25.7409 0.987475C25.3841 0.376783 24.7196 0 24 0C23.2804 0 22.6159 0.376783 22.259 0.987381L20.7434 3.58005C20.4651 4.05602 19.9956 4.39634 19.4485 4.51831C18.9017 4.64028 18.3273 4.53275 17.8653 4.22177L15.3484 2.52817C14.7556 2.12945 13.9897 2.07161 13.3413 2.37658C12.6929 2.68164 12.2616 3.30283 12.2113 4.00409L11.9972 6.98254C11.9579 7.52939 11.6859 8.03498 11.2472 8.37671C10.8086 8.71843 10.2435 8.86505 9.68915 8.78077L6.66939 8.32186C5.95824 8.21377 5.24247 8.4863 4.79377 9.03605C4.34506 9.58581 4.2324 10.3282 4.4985 10.9814L5.62842 13.7556C5.83589 14.2648 5.81545 14.8357 5.572 15.3296C5.32855 15.8235 4.88454 16.1951 4.34765 16.3541L1.42309 17.2208C0.734479 17.4248 0.210539 17.9739 0.0503823 18.6593C-0.109774 19.3447 0.118418 20.0615 0.648307 20.5372L2.89837 22.5577C3.31148 22.9286 3.54658 23.4517 3.54658 23.9999C3.54658 24.548 3.31148 25.0711 2.89837 25.442L0.648211 27.4626C0.118322 27.9384 -0.109774 28.655 0.0502864 29.3405C0.210347 30.0261 0.734287 30.5751 1.42299 30.7791L4.34755 31.6457C4.88445 31.8048 5.32855 32.1764 5.5719 32.6702C5.81535 33.1641 5.83579 33.735 5.62833 34.2443L4.4984 37.0184C4.23231 37.6717 4.34506 38.4142 4.79367 38.9638C5.24228 39.5134 5.95824 39.786 6.6693 39.678L9.68905 39.219C10.2434 39.1348 10.8085 39.2814 11.2471 39.6231C11.6858 39.9648 11.9578 40.4706 11.9971 41.0173L12.2112 43.9957C12.2615 44.6971 12.6928 45.3183 13.3412 45.6232C13.9896 45.9283 14.7555 45.8705 15.3483 45.4716L17.8652 43.778C18.3272 43.4672 18.9016 43.3596 19.4484 43.4816C19.9955 43.6036 20.465 43.9438 20.7433 44.4199L22.2588 47.0126C22.6157 47.6232 23.2801 48 23.9998 48C24.7194 48 25.3839 47.6232 25.7408 47.0126L27.2563 44.4199C27.5346 43.9439 28.0041 43.6036 28.5512 43.4816C29.0981 43.3595 29.6724 43.4672 30.1344 43.778L32.6513 45.4716C33.2441 45.8705 34.01 45.9282 34.6584 45.6232C35.3068 45.3182 35.7381 44.697 35.7885 43.9957L36.0025 41.0173C36.0418 40.4704 36.3138 39.9648 36.7525 39.6231C37.1911 39.2814 37.7562 39.1348 38.3106 39.219L41.3303 39.678C42.0415 39.786 42.7572 39.5135 43.2059 38.9638C43.6547 38.414 43.7673 37.6716 43.5012 37.0184L42.3713 34.2443C42.1638 33.735 42.1843 33.1641 42.4277 32.6702C42.6712 32.1763 43.1153 31.8047 43.6521 31.6457L46.5766 30.7791C47.2653 30.5751 47.7892 30.026 47.9493 29.3405C48.1099 28.6552 47.8817 27.9385 47.3518 27.4627ZM17.4892 27.8447H17.4891C17.4891 28.2526 16.9804 28.4565 16.4713 28.4565C16.0016 28.4565 15.584 28.3672 15.3363 27.9211L12.8572 23.5105V27.8446C12.8572 28.2525 12.3484 28.4564 11.8395 28.4564C11.3306 28.4564 10.8217 28.2525 10.8217 27.8446V19.7501C10.8217 19.3294 11.3305 19.1382 11.8395 19.1382C12.5701 19.1382 12.8442 19.2019 13.34 20.1325L15.4538 24.0714V19.7374C15.4538 19.3167 15.9626 19.1382 16.4715 19.1382C16.9804 19.1382 17.4893 19.3166 17.4893 19.7374L17.4892 27.8447ZM22.8906 23.0264V23.0263C23.282 23.0263 23.5039 23.3959 23.5039 23.8038C23.5039 24.148 23.3212 24.5559 22.8906 24.5559H20.9334V26.7229H24.4302C24.8216 26.7229 25.0435 27.1308 25.0435 27.6024C25.0435 28.0103 24.8609 28.4565 24.4302 28.4565H19.7853C19.3416 28.4565 18.898 28.2526 18.898 27.8447V19.7501C18.898 19.3422 19.3416 19.1383 19.7853 19.1383H24.4302C24.8609 19.1383 25.0435 19.5844 25.0435 19.9924C25.0435 20.4641 24.8216 20.8721 24.4302 20.8721H20.9334V23.0264L22.8906 23.0264ZM37.1645 20.0943L34.568 27.8702C34.4114 28.3164 33.8244 28.5331 33.224 28.5331C32.6368 28.5331 32.0106 28.3163 31.9062 27.8702L31.2278 24.8491L30.5492 27.8702C30.4448 28.3164 29.8186 28.5331 29.2314 28.5331C28.6312 28.5331 28.0311 28.3163 27.8876 27.8702L25.291 20.0943C25.2781 20.0561 25.2649 19.9924 25.2649 19.9286C25.2649 19.4951 25.9957 19.1382 26.5828 19.1382C26.896 19.1382 27.1569 19.2402 27.2352 19.5079L29.2184 26.0473L30.2492 21.7387C30.3275 21.3945 30.7842 21.216 31.2278 21.216C31.6714 21.216 32.128 21.3945 32.2063 21.7387L33.2371 26.0473L35.2203 19.5079C35.2986 19.2402 35.5596 19.1382 35.8727 19.1382C36.4599 19.1382 37.1905 19.4951 37.1905 19.9286C37.1906 19.9924 37.1775 20.0561 37.1645 20.0943Z" fill="white"/>
</svg>
